<?xml version="1.0" standalone="no"?>
<!DOCTYPE svg PUBLIC "-//W3C//DTD SVG 20010904//EN"
 "http://www.w3.org/TR/2001/REC-SVG-20010904/DTD/svg10.dtd">
<svg version="1.0" xmlns="http://www.w3.org/2000/svg"
 width="500.000000pt" height="198.000000pt" viewBox="0 0 500.000000 198.000000"
 preserveAspectRatio="xMidYMid meet">

<g transform="translate(0.000000,198.000000) scale(0.100000,-0.100000)"
fill="#000000" stroke="none">
<path d="M2132 1628 c2 -12 10 -23 18 -23 22 0 19 39 -3 43 -15 3 -18 -1 -15
-20z"/>
<path d="M2755 1640 c-4 -7 -3 -16 3 -22 14 -14 45 -2 40 15 -6 16 -34 21 -43
7z"/>
<path d="M2929 1598 c0 -29 0 -74 1 -99 1 -30 -4 -50 -14 -58 -24 -20 -36 -4
-36 51 0 41 3 51 20 55 26 7 15 23 -15 23 -31 0 -55 -35 -55 -82 0 -47 31 -83
63 -73 12 4 34 6 50 6 l27 -1 0 115 c0 108 -1 115 -20 115 -17 0 -20 -7 -21
-52z"/>
<path d="M3259 1598 c0 -29 0 -74 1 -99 2 -70 -41 -94 -55 -31 -7 36 10 82 30
82 9 0 13 5 10 10 -11 18 -53 11 -69 -12 -38 -54 -4 -149 47 -133 12 4 34 6
50 6 l27 -1 0 115 c0 108 -1 115 -20 115 -17 0 -20 -7 -21 -52z"/>
<path d="M1720 1551 c0 -103 19 -131 89 -131 62 0 91 25 91 79 0 21 3 59 6 85
6 38 4 46 -10 46 -13 0 -16 -13 -16 -77 -1 -89 -13 -113 -57 -113 -47 0 -58
22 -58 112 0 74 -1 78 -22 78 -22 0 -23 -4 -23 -79z"/>
<path d="M1950 1494 c0 -67 2 -74 20 -74 17 0 20 7 20 48 0 27 6 57 14 68 23
30 41 3 41 -61 0 -51 2 -55 24 -55 23 0 23 2 19 66 -2 41 -9 69 -18 74 -8 5
-38 9 -67 9 l-53 0 0 -75z"/>
<path d="M2130 1495 c0 -68 2 -75 20 -75 18 0 20 7 20 75 0 68 -2 75 -20 75
-18 0 -20 -7 -20 -75z"/>
<path d="M2299 1528 c-18 -62 -25 -65 -38 -14 -10 39 -15 46 -36 46 l-25 0 25
-66 c14 -37 25 -68 25 -70 0 -2 7 -4 15 -4 9 0 19 10 24 23 5 12 18 46 30 75
17 42 18 52 6 52 -8 0 -19 -18 -26 -42z"/>
<path d="M2370 1550 c-26 -26 -27 -91 -2 -112 25 -22 50 -29 78 -22 31 8 31
23 0 17 -17 -4 -28 2 -40 18 -24 35 -20 39 29 39 38 0 45 3 45 20 0 28 -35 60
-65 60 -14 0 -34 -9 -45 -20z m68 -18 c3 -18 -2 -22 -22 -22 -29 0 -31 3 -15
31 13 25 33 20 37 -9z"/>
<path d="M2515 1495 c0 -65 2 -75 18 -75 13 0 17 9 17 39 0 52 8 71 31 71 12
0 19 7 19 20 0 24 -8 25 -32 3 -17 -15 -18 -15 -18 0 0 10 -8 17 -17 17 -16 0
-18 -10 -18 -75z"/>
<path d="M2648 1559 c-11 -6 -18 -22 -18 -39 0 -23 7 -33 30 -45 17 -9 30 -22
30 -30 0 -18 -31 -20 -49 -2 -10 10 -12 8 -9 -8 4 -24 38 -31 68 -15 29 16 24
70 -8 86 -13 6 -29 17 -35 23 -16 16 22 27 45 12 17 -11 19 -10 16 6 -4 21
-44 28 -70 12z"/>
<path d="M2760 1495 c0 -68 2 -75 20 -75 18 0 20 7 20 75 0 68 -2 75 -20 75
-18 0 -20 -7 -20 -75z"/>
<path d="M3023 1558 c-34 -16 -28 -25 15 -24 48 1 50 -23 4 -38 -37 -13 -55
-36 -46 -60 8 -20 39 -30 61 -17 11 6 24 6 36 -1 27 -14 31 -5 28 65 -3 82
-34 106 -98 75z m67 -77 c0 -20 -13 -41 -25 -41 -18 0 -26 15 -19 34 6 17 44
23 44 7z"/>
<path d="M4023 1385 c3 -85 3 -155 0 -155 -4 0 -14 6 -22 14 -44 38 -125 45
-186 17 -87 -40 -138 -132 -138 -246 2 -182 82 -274 231 -263 40 3 69 11 91
28 33 23 33 23 26 1 -6 -20 -4 -21 82 -21 l88 0 1 390 1 390 -90 0 -90 0 6
-155z m-19 -238 c18 -25 21 -42 21 -135 0 -84 -4 -114 -18 -140 -20 -36 -58
-56 -89 -46 -65 20 -80 243 -23 331 23 34 80 29 109 -10z"/>
<path d="M220 1110 l0 -360 215 0 215 0 0 55 0 56 -120 -7 -120 -7 0 116 0
117 120 0 120 0 0 50 0 50 -120 0 -120 0 0 97 0 96 120 -6 120 -7 0 55 0 55
-215 0 -215 0 0 -360z"/>
<path d="M1413 1406 l-73 -31 0 -64 0 -64 -35 6 -35 6 0 -40 c0 -38 1 -39 35
-39 l35 0 0 -163 c0 -149 2 -167 23 -207 27 -54 74 -75 150 -65 77 10 97 20
97 53 0 27 -2 28 -47 28 l-48 -1 -9 64 c-4 35 -5 115 -1 178 l7 113 44 0 44 0
0 39 0 39 -45 -5 -44 -6 -3 93 c-2 52 -7 94 -13 96 -5 1 -43 -12 -82 -30z"/>
<path d="M2868 1271 c-15 -5 -41 -19 -58 -31 l-30 -21 0 25 c0 26 0 26 -87 26
l-88 0 0 -258 0 -257 86 0 87 0 -5 156 c-8 205 6 249 78 251 24 1 39 -6 57
-28 25 -28 25 -29 20 -201 l-5 -173 89 0 88 0 0 193 c0 180 -1 196 -22 237
-13 25 -37 53 -55 63 -37 21 -116 30 -155 18z"/>
<path d="M1770 1250 c-93 -43 -131 -105 -138 -221 -9 -145 51 -239 174 -275
116 -33 252 -2 280 65 20 47 6 57 -44 32 -115 -59 -208 -17 -225 102 l-6 37
156 0 155 0 -4 68 c-4 84 -31 137 -87 177 -38 27 -51 30 -129 33 -71 2 -95 -1
-132 -18z m151 -70 c11 -14 22 -46 25 -72 l7 -48 -72 0 c-79 0 -80 1 -60 73
12 44 43 80 66 75 9 -2 24 -14 34 -28z"/>
<path d="M2434 1251 c-17 -10 -40 -31 -52 -46 l-22 -28 0 42 0 41 -85 0 -85 0
0 -252 0 -253 91 0 92 0 -6 137 c-4 88 -3 147 4 167 17 50 84 75 130 51 24
-13 25 -9 33 88 l6 72 -37 0 c-21 0 -52 -9 -69 -19z"/>
<path d="M3300 1253 c-25 -8 -58 -25 -75 -36 -16 -11 -31 -21 -32 -22 -7 -4
19 -75 27 -75 5 0 26 11 46 25 51 35 125 35 159 0 52 -51 28 -77 -95 -105
-119 -27 -170 -75 -170 -160 0 -27 8 -58 19 -76 41 -67 174 -84 244 -32 l33
26 23 -24 c30 -32 83 -40 140 -22 33 10 47 20 49 35 2 16 -4 22 -27 26 l-30 6
-3 175 c-3 199 -8 213 -88 254 -53 27 -151 29 -220 5z m150 -298 c0 -25 -6
-61 -14 -79 -28 -66 -106 -52 -106 20 0 50 10 65 54 85 61 27 66 25 66 -26z"/>
<path d="M4415 1251 c-97 -44 -149 -133 -149 -257 0 -70 4 -86 28 -128 53 -90
155 -135 278 -122 144 15 227 112 228 266 0 169 -92 260 -265 260 -56 0 -92
-6 -120 -19z m164 -60 c31 -31 44 -97 39 -201 -7 -144 -39 -194 -113 -176 -37
9 -58 59 -63 151 -8 145 30 245 93 245 14 0 34 -9 44 -19z"/>
<path d="M796 1128 c46 -73 84 -138 84 -144 0 -6 -35 -56 -78 -110 -106 -135
-103 -124 -34 -124 l59 0 54 81 53 81 22 -39 c13 -21 34 -57 48 -80 l26 -43
100 0 c78 0 99 3 94 13 -5 6 -40 62 -79 122 -40 61 -77 120 -84 133 -13 25
-24 10 125 187 l46 55 -63 0 -64 0 -52 -76 -51 -75 -43 75 -43 76 -102 0 -103
0 85 -132z"/>
<path d="M3740 510 l0 -120 25 0 25 0 0 120 0 120 -25 0 -25 0 0 -120z"/>
<path d="M4342 505 c-1 -69 1 -125 6 -125 4 0 13 5 20 12 9 9 15 9 24 0 35
-35 118 9 118 62 0 62 -39 96 -95 82 -24 -6 -25 -5 -25 44 0 45 -2 50 -23 50
-22 0 -23 -2 -25 -125z m112 -1 c19 -50 -4 -121 -36 -109 -27 11 -39 90 -16
113 17 17 45 15 52 -4z"/>
<path d="M4560 620 c-18 -11 -4 -42 17 -38 10 2 19 10 21 19 4 19 -19 31 -38
19z"/>
<path d="M2910 568 c0 -40 -3 -49 -12 -40 -18 18 -53 15 -79 -7 -19 -15 -23
-28 -23 -62 2 -54 33 -84 79 -75 16 4 42 6 58 6 l27 0 0 115 0 115 -25 0 c-23
0 -25 -3 -25 -52z m-4 -63 c19 -29 12 -93 -12 -102 -36 -14 -59 60 -34 108 14
26 26 24 46 -6z"/>
<path d="M3342 590 c-62 -38 -76 -118 -29 -168 40 -43 167 -54 181 -15 5 11 2
13 -11 8 -54 -21 -82 -18 -113 13 -76 77 5 203 100 152 13 -7 19 -6 23 4 13
33 -101 37 -151 6z"/>
<path d="M3026 524 c-21 -20 -30 -58 -22 -90 8 -32 65 -58 107 -49 41 9 46 25
6 18 -28 -4 -37 -1 -51 18 -24 35 -21 39 39 39 48 0 55 2 55 20 0 51 -96 83
-134 44z m78 -10 c11 -28 7 -34 -24 -34 -31 0 -39 17 -18 38 17 17 35 15 42
-4z"/>
<path d="M3552 517 c-51 -54 -12 -137 65 -137 70 0 112 91 63 140 -29 29 -99
28 -128 -3z m86 1 c13 -13 16 -75 6 -102 -7 -19 -35 -21 -52 -4 -7 7 -12 30
-12 53 0 40 13 65 35 65 6 0 16 -5 23 -12z"/>
<path d="M3855 515 c-51 -50 -22 -122 52 -132 38 -5 45 -2 74 26 26 27 30 37
25 63 -10 49 -33 68 -83 68 -33 0 -50 -6 -68 -25z m90 -50 c0 -51 -3 -60 -19
-63 -38 -8 -57 47 -36 103 7 20 16 26 33 23 20 -3 22 -8 22 -63z"/>
<path d="M4050 465 c0 -71 1 -75 23 -75 20 0 22 5 22 55 0 39 5 59 15 65 27
17 35 4 38 -63 3 -63 4 -67 27 -67 23 0 24 4 27 63 3 59 4 62 28 62 23 0 25
-4 28 -57 3 -54 5 -58 27 -58 23 0 25 4 25 49 0 75 -13 101 -50 101 -17 0 -40
-5 -50 -10 -13 -7 -21 -7 -25 0 -9 14 -68 13 -83 -2 -9 -9 -12 -9 -12 0 0 7
-9 12 -20 12 -18 0 -20 -7 -20 -75z"/>
<path d="M4550 465 c0 -73 1 -75 25 -75 24 0 25 2 25 75 0 73 -1 75 -25 75
-24 0 -25 -2 -25 -75z"/>
<path d="M4667 533 c-4 -3 -7 -12 -7 -20 0 -11 4 -11 20 -3 25 13 60 4 60 -15
0 -8 -17 -19 -39 -25 -44 -11 -64 -31 -59 -56 5 -29 34 -40 69 -27 24 9 36 10
46 2 18 -15 51 -3 35 13 -7 7 -12 35 -12 63 0 28 -5 56 -12 63 -13 13 -90 17
-101 5z m73 -77 c0 -20 -23 -56 -35 -56 -21 0 -30 27 -15 45 11 13 50 22 50
11z"/>
</g>
</svg>
